<?xml version="1.0" encoding="UTF-8" standalone="no"?>
<!-- Created with Inkscape (http://www.inkscape.org/) -->

<svg
   width="99.234505mm"
   height="85.948387mm"
   viewBox="0 0 99.2345 85.948387"
   version="1.1"
   id="svg5"
   xmlns="http://www.w3.org/2000/svg"
   xmlns:svg="http://www.w3.org/2000/svg">
  <defs
     id="defs2" />
  <g
     id="layer1"
     transform="translate(-0.49154401,-5.3412049)">
    <path
       style="fill:none;stroke:#000000;stroke-width:6.27287;stroke-dasharray:none"
       id="path242"
       d="M 1.2487752,91.368697 49.524868,7.7178659 97.830567,91.351604 Z"
       transform="matrix(0.92356944,0,0,0.92356944,4.3549592,4.0066508)" />
  </g>
  <g
     id="layer1-0"
     transform="translate(-2.0676723,15.790436)">
    <path
       style="fill:none;stroke:#000000;stroke-width:2.5;stroke-dasharray:none"
       id="path2792"
       d="m 66.683203,36.950308 a 15.452719,15.452719 0 0 1 -2.642515,11.806163 15.452719,15.452719 0 0 1 -10.33827,6.28399" />
    <path
       style="fill:none;stroke:#000000;stroke-width:2.5;stroke-dasharray:none"
       id="path2838"
       d="M 38.103324,32.021195 A 15.452719,15.452719 0 0 1 50.8301,24.308753 15.452719,15.452719 0 0 1 64.16495,30.914382" />
    <path
       style="fill:none;stroke:#000000;stroke-width:2.5;stroke-dasharray:none"
       id="path2840"
       d="M 47.446191,54.662926 A 15.452719,15.452719 0 0 1 36.194355,37.520649" />
    <path
       style="fill:none;stroke:#000000;stroke-width:2.5;stroke-dasharray:none"
       d="m 31.84497,40.334618 4.477664,-2.936922 3.184808,4.241885"
       id="path2842" />
    <path
       style="fill:none;stroke:#000000;stroke-width:2.5;stroke-dasharray:none"
       d="m 63.760712,25.078045 0.170587,5.352186 -5.280293,0.505058"
       id="path2842-1" />
    <path
       style="fill:none;stroke:#000000;stroke-width:2.5;stroke-dasharray:none"
       d="m 57.297069,58.270527 -3.69338,-3.87736 3.600893,-3.894889"
       id="path2842-7" />
  </g>
</svg>
